<svg width="35" height="35" viewBox="0 0 35 35" fill="none" xmlns="http://www.w3.org/2000/svg">
<path d="M32.375 35H2.625C1.17775 35 0 33.8223 0 32.375V2.625C0 1.17775 1.17775 0 2.625 0H32.375C33.8223 0 35 1.17775 35 2.625V32.375C35 33.8223 33.8223 35 32.375 35ZM2.625 1.16667C1.82117 1.16667 1.16667 1.82117 1.16667 2.625V32.375C1.16667 33.1788 1.82117 33.8333 2.625 33.8333H32.375C33.1794 33.8333 33.8333 33.1788 33.8333 32.375V2.625C33.8333 1.82117 33.1788 1.16667 32.375 1.16667H2.625Z" fill="#515365"/>
<path d="M5.25004 5.83334H2.91671C2.59471 5.83334 2.33337 5.57201 2.33337 5.25001V2.91668C2.33337 2.59468 2.59471 2.33334 2.91671 2.33334H5.25004C5.57204 2.33334 5.83337 2.59468 5.83337 2.91668V5.25001C5.83337 5.57201 5.57204 5.83334 5.25004 5.83334ZM3.50004 4.66668H4.66671V3.50001H3.50004V4.66668Z" fill="#515365"/>
<path d="M9.91666 5.83334H7.58333C7.26133 5.83334 7 5.57201 7 5.25001V2.91668C7 2.59468 7.26133 2.33334 7.58333 2.33334H9.91666C10.2387 2.33334 10.5 2.59468 10.5 2.91668V5.25001C10.5 5.57201 10.2387 5.83334 9.91666 5.83334ZM8.16666 4.66668H9.33333V3.50001H8.16666V4.66668Z" fill="#515365"/>
<path d="M14.5833 5.83334H12.25C11.928 5.83334 11.6667 5.57201 11.6667 5.25001V2.91668C11.6667 2.59468 11.928 2.33334 12.25 2.33334H14.5833C14.9053 2.33334 15.1667 2.59468 15.1667 2.91668V5.25001C15.1667 5.57201 14.9053 5.83334 14.5833 5.83334ZM12.8334 4.66668H14V3.50001H12.8334V4.66668Z" fill="#515365"/>
<path d="M34.4167 8.16667H0.583333C0.261333 8.16667 0 7.90533 0 7.58333V2.625C0 1.17775 1.17775 0 2.625 0H32.375C33.8223 0 35 1.17775 35 2.625V7.58333C35 7.90533 34.7387 8.16667 34.4167 8.16667ZM1.16667 7H33.8333V2.625C33.8333 1.82117 33.1788 1.16667 32.375 1.16667H2.625C1.82117 1.16667 1.16667 1.82117 1.16667 2.625V7Z" fill="#515365"/>
<path d="M16.3334 22.1667H3.50002C3.17802 22.1667 2.91669 21.9053 2.91669 21.5833V9.91668C2.91669 9.59468 3.17802 9.33334 3.50002 9.33334H16.3334C16.6554 9.33334 16.9167 9.59468 16.9167 9.91668V21.5833C16.9167 21.9053 16.6554 22.1667 16.3334 22.1667ZM4.08335 21H15.75V10.5H4.08335V21Z" fill="#515365"/>
<path d="M31.5 22.1667H18.6666C18.3446 22.1667 18.0833 21.9053 18.0833 21.5833V9.91668C18.0833 9.59468 18.3446 9.33334 18.6666 9.33334H31.5C31.822 9.33334 32.0833 9.59468 32.0833 9.91668V21.5833C32.0833 21.9053 31.822 22.1667 31.5 22.1667ZM19.25 21H30.9166V10.5H19.25V21Z" fill="#515365"/>
<path d="M9.91664 22.1667C9.76731 22.1667 9.61798 22.1095 9.50423 21.9958L6.41665 18.9082L3.9124 21.4124C3.6849 21.6405 3.31507 21.6405 3.08757 21.4124C2.85948 21.1843 2.85948 20.8157 3.08757 20.5876L6.00423 17.6709C6.23173 17.4428 6.60156 17.4428 6.82906 17.6709L10.3291 21.1709C10.5571 21.399 10.5571 21.7677 10.3291 21.9958C10.2153 22.1095 10.066 22.1667 9.91664 22.1667Z" fill="#515365"/>
<path d="M7.58334 16.3333C6.2965 16.3333 5.25 15.2868 5.25 14C5.25 12.7132 6.2965 11.6667 7.58334 11.6667C8.87017 11.6667 9.91667 12.7132 9.91667 14C9.91667 15.2868 8.87017 16.3333 7.58334 16.3333ZM7.58334 12.8333C6.93992 12.8333 6.41667 13.3566 6.41667 14C6.41667 14.6434 6.93992 15.1667 7.58334 15.1667C8.22676 15.1667 8.75001 14.6434 8.75001 14C8.75001 13.3566 8.22676 12.8333 7.58334 12.8333Z" fill="#515365"/>
<path d="M16.3333 21C16.184 21 16.0346 20.9428 15.9209 20.8291L12.268 17.1762L9.05679 20.6774C8.83862 20.9148 8.46996 20.9312 8.23254 20.713C7.99512 20.4954 7.97937 20.1262 8.19696 19.8887L11.82 15.939C11.928 15.8217 12.0785 15.7535 12.2377 15.75C12.3987 15.7529 12.5504 15.8083 12.663 15.9209L16.7463 20.0042C16.9744 20.2323 16.9744 20.601 16.7463 20.8291C16.632 20.9428 16.4826 21 16.3333 21Z" fill="#515365"/>
<path d="M23.3333 18.6667C23.2324 18.6667 23.1309 18.6404 23.0405 18.5879C22.8608 18.4835 22.75 18.291 22.75 18.0834V13.4167C22.75 13.209 22.8608 13.0165 23.0405 12.9121C23.2207 12.8077 23.4418 12.8071 23.6227 12.9103L27.706 15.2437C27.888 15.3475 28 15.5406 28 15.75C28 15.9594 27.888 16.1525 27.706 16.2564L23.6227 18.5897C23.5328 18.641 23.4331 18.6667 23.3333 18.6667ZM23.9167 14.4218V17.0783L26.2407 15.75L23.9167 14.4218Z" fill="#515365"/>
<path d="M16.3334 32.6667H3.50002C3.17802 32.6667 2.91669 32.4053 2.91669 32.0833V23.9167C2.91669 23.5947 3.17802 23.3333 3.50002 23.3333H16.3334C16.6554 23.3333 16.9167 23.5947 16.9167 23.9167V32.0833C16.9167 32.4053 16.6554 32.6667 16.3334 32.6667ZM4.08335 31.5H15.75V24.5H4.08335V31.5Z" fill="#515365"/>
<path d="M13.4167 27.4167H12.8333C12.5113 27.4167 12.25 27.1553 12.25 26.8333C12.25 26.5113 12.5113 26.25 12.8333 26.25H13.4167C13.7387 26.25 14 26.5113 14 26.8333C14 27.1553 13.7387 27.4167 13.4167 27.4167Z" fill="#515365"/>
<path d="M10.5 27.4167H6.41671C6.09471 27.4167 5.83337 27.1553 5.83337 26.8333C5.83337 26.5113 6.09471 26.25 6.41671 26.25H10.5C10.822 26.25 11.0834 26.5113 11.0834 26.8333C11.0834 27.1553 10.822 27.4167 10.5 27.4167Z" fill="#515365"/>
<path d="M7.00004 29.75H6.41671C6.09471 29.75 5.83337 29.4887 5.83337 29.1667C5.83337 28.8447 6.09471 28.5833 6.41671 28.5833H7.00004C7.32204 28.5833 7.58337 28.8447 7.58337 29.1667C7.58337 29.4887 7.32204 29.75 7.00004 29.75Z" fill="#515365"/>
<path d="M13.4167 29.75H9.33333C9.01133 29.75 8.75 29.4887 8.75 29.1667C8.75 28.8447 9.01133 28.5833 9.33333 28.5833H13.4167C13.7387 28.5833 14 28.8447 14 29.1667C14 29.4887 13.7387 29.75 13.4167 29.75Z" fill="#515365"/>
<path d="M31.5 32.6667H18.6666C18.3446 32.6667 18.0833 32.4053 18.0833 32.0833V23.9167C18.0833 23.5947 18.3446 23.3333 18.6666 23.3333H31.5C31.822 23.3333 32.0833 23.5947 32.0833 23.9167V32.0833C32.0833 32.4053 31.822 32.6667 31.5 32.6667ZM19.25 31.5H30.9166V24.5H19.25V31.5Z" fill="#515365"/>
<path d="M28.5834 27.4167H28C27.678 27.4167 27.4167 27.1553 27.4167 26.8333C27.4167 26.5113 27.678 26.25 28 26.25H28.5834C28.9054 26.25 29.1667 26.5113 29.1667 26.8333C29.1667 27.1553 28.9054 27.4167 28.5834 27.4167Z" fill="#515365"/>
<path d="M25.6667 27.4167H21.5833C21.2613 27.4167 21 27.1553 21 26.8333C21 26.5113 21.2613 26.25 21.5833 26.25H25.6667C25.9887 26.25 26.25 26.5113 26.25 26.8333C26.25 27.1553 25.9887 27.4167 25.6667 27.4167Z" fill="#515365"/>
<path d="M22.1667 29.75H21.5833C21.2613 29.75 21 29.4887 21 29.1667C21 28.8447 21.2613 28.5833 21.5833 28.5833H22.1667C22.4887 28.5833 22.75 28.8447 22.75 29.1667C22.75 29.4887 22.4887 29.75 22.1667 29.75Z" fill="#515365"/>
<path d="M28.5833 29.75H24.5C24.178 29.75 23.9167 29.4887 23.9167 29.1667C23.9167 28.8447 24.178 28.5833 24.5 28.5833H28.5833C28.9053 28.5833 29.1667 28.8447 29.1667 29.1667C29.1667 29.4887 28.9053 29.75 28.5833 29.75Z" fill="#515365"/>
</svg>
