<svg width="35" height="35" viewBox="0 0 35 35" fill="none" xmlns="http://www.w3.org/2000/svg">
<path d="M33.4021 22.7124C30.4599 21.0208 27.1125 20.0582 23.6454 19.8004C24.3556 20.1182 25.07 20.4288 25.7426 20.8154C26.5246 21.2655 27.1516 21.915 27.6127 22.6686C29.2607 23.1262 30.8453 23.7656 32.3136 24.6093C32.6212 24.7866 32.8124 25.1423 32.8124 25.5386V30.6249H28.4375V32.8124H33.9062C34.5108 32.8124 34.9999 32.3232 34.9999 31.7187V25.5386C35 24.3605 34.3869 23.2774 33.4021 22.7124Z" fill="#515365"/>
<path d="M24.6521 22.7123C17.767 18.7539 8.48302 18.7539 1.59787 22.7123C0.612004 23.2795 0 24.3615 0 25.5386V31.7187C0 32.3233 0.489184 32.8125 1.09376 32.8125H25.1562C25.7608 32.8125 26.2499 32.3233 26.2499 31.7187V25.5375C26.2499 24.3615 25.6379 23.2795 24.6521 22.7123ZM24.0625 30.6249H2.18758V25.5386C2.18758 25.1423 2.37879 24.7866 2.68743 24.6093C8.91238 21.0312 17.3377 21.0312 23.5626 24.6093C23.8713 24.7866 24.0625 25.1423 24.0625 25.5375V30.6249Z" fill="#515365"/>
<path d="M21.3304 4.42639C21.5118 4.40741 21.6915 4.37502 21.8751 4.37502C24.8904 4.37502 27.3439 6.8285 27.3439 9.84374C27.3439 12.859 24.8904 15.3125 21.8751 15.3125C21.6917 15.3125 21.5119 15.2799 21.3305 15.2609C20.8664 15.9617 20.2983 16.5775 19.6752 17.1374C20.3875 17.3568 21.1225 17.4999 21.8751 17.4999C26.0963 17.4999 29.5314 14.0649 29.5314 9.84368C29.5314 5.62246 26.0964 2.18744 21.8751 2.18744C21.1224 2.18744 20.3874 2.33058 19.6751 2.54993C20.2982 3.10999 20.8663 3.72561 21.3304 4.42639Z" fill="#515365"/>
<path d="M13.1251 17.5C17.3462 17.5 20.7813 14.065 20.7813 9.84374C20.7813 5.62252 17.3463 2.1875 13.1251 2.1875C8.90383 2.1875 5.46881 5.62252 5.46881 9.84374C5.46881 14.065 8.90389 17.5 13.1251 17.5ZM13.1251 4.37502C16.1404 4.37502 18.5938 6.82849 18.5938 9.84374C18.5938 12.859 16.1403 15.3125 13.1251 15.3125C10.1098 15.3125 7.65633 12.859 7.65633 9.84374C7.65633 6.82849 10.1098 4.37502 13.1251 4.37502Z" fill="#515365"/>
</svg>
