<svg width="38" height="38" viewBox="0 0 38 38" fill="none" xmlns="http://www.w3.org/2000/svg">
<path d="M14.935 0.542292C11.9576 1.18501 8.37661 2.99265 6.24413 4.96097L4.71518 6.36692L2.42175 4.47893L0.128331 2.63112L0.00762464 11.83C-0.0326109 17.3333 0.0880957 21.8725 0.329509 23.1177C1.4561 28.38 5.68083 33.7627 10.5896 36.0926C18.0331 39.6275 26.4826 38.1814 32.357 32.3166C39.881 24.8049 39.881 13.1958 32.357 5.76437C29.4198 2.83197 26.6435 1.30552 22.9821 0.542292C19.6828 -0.180765 18.1941 -0.180765 14.935 0.542292ZM23.9075 11.0266C25.1146 11.7497 26.3216 12.9548 27.0861 14.1599C28.1322 15.8872 28.2932 16.5299 28.2932 19.0204C28.2932 21.5109 28.1322 22.1537 27.0861 23.881C23.9478 28.9022 16.987 29.9868 12.722 26.1305C10.5493 24.1621 9.58367 22.0331 9.58367 19.0204C9.58367 15.9273 10.5896 13.7983 12.8428 11.8702C14.9752 10.0224 16.3432 9.5805 19.4816 9.70101C21.4129 9.78135 22.3786 10.0625 23.9075 11.0266Z" fill="black"/>
</svg>
