<svg width="12" height="12" viewBox="0 0 12 12" fill="none" xmlns="http://www.w3.org/2000/svg">
<path d="M1.19999 12C1.53119 12 1.79999 11.7312 1.79999 11.4V7.026L10.506 11.9232C10.6896 12.0264 10.9188 12.0252 11.1024 11.9184C11.286 11.8116 11.4 11.6136 11.4 11.4L11.4 0.599999C11.4 0.386399 11.286 0.189599 11.1024 0.0815992C11.01 0.0275993 10.9044 0 10.8 0C10.698 0 10.5972 0.0251999 10.506 0.0767994L1.79999 4.974L1.79999 0.599999C1.79999 0.2688 1.53119 0 1.19999 0C0.868794 0 0.599995 0.2688 0.599995 0.599999L0.599995 11.4C0.599995 11.7312 0.868794 12 1.19999 12Z" fill="white"/>
</svg>
