<svg width="19" height="19" viewBox="0 0 19 19" fill="none" xmlns="http://www.w3.org/2000/svg">
<path d="M13.4684 0H2.55823C1.94436 0 1.44495 0.499418 1.44495 1.11328V4.89844C1.44495 5.10339 1.61112 5.26953 1.81604 5.26953C2.02096 5.26953 2.18713 5.10339 2.18713 4.89844V1.11328C2.18713 0.90866 2.35361 0.742188 2.55823 0.742188H13.4684C13.673 0.742188 13.8395 0.90866 13.8395 1.11328V14.918C13.8395 15.1226 13.673 15.2891 13.4684 15.2891H2.55823C2.35361 15.2891 2.18713 15.1226 2.18713 14.918V8.02798C2.18713 7.82303 2.02096 7.65689 1.81604 7.65689C1.61112 7.65689 1.44495 7.82303 1.44495 8.02798V14.918C1.44495 15.5318 1.94436 16.0312 2.55823 16.0312H13.4684C14.0822 16.0312 14.5817 15.5318 14.5817 14.918V1.11328C14.5817 0.499418 14.0822 0 13.4684 0Z" fill="#515365"/>
<path d="M2.07837 6.29745C2.00938 6.22842 1.91364 6.18909 1.81604 6.18909C1.71844 6.18909 1.6227 6.22842 1.55368 6.29745C1.48462 6.36684 1.44495 6.46258 1.44495 6.55981C1.44495 6.65778 1.48465 6.75315 1.55368 6.82254C1.6227 6.89157 1.71844 6.93127 1.81604 6.93127C1.9136 6.93127 2.00934 6.89157 2.07837 6.82254C2.14743 6.75352 2.18713 6.65778 2.18713 6.55981C2.18713 6.46221 2.14739 6.36684 2.07837 6.29745Z" fill="#515365"/>
<path d="M3.56498 16.8844C3.49595 16.8153 3.40062 16.7756 3.30261 16.7756C3.20501 16.7756 3.10927 16.8153 3.04029 16.8844C2.97123 16.9534 2.93152 17.0491 2.93152 17.1467C2.93152 17.2447 2.97126 17.3401 3.04029 17.4091C3.10927 17.4785 3.20501 17.5178 3.30261 17.5178C3.40062 17.5178 3.49595 17.4785 3.56498 17.4091C3.63404 17.3401 3.67371 17.2447 3.67371 17.1467C3.67371 17.0491 3.634 16.9534 3.56498 16.8844Z" fill="#515365"/>
<path d="M15.6973 1.48669C15.4923 1.48669 15.3262 1.65283 15.3262 1.85779V16.4047C15.3262 16.6093 15.1597 16.7758 14.9551 16.7758H4.78711C4.58219 16.7758 4.41602 16.9419 4.41602 17.1469C4.41602 17.3518 4.58219 17.5179 4.78711 17.5179H14.9551C15.5689 17.5179 16.0684 17.0185 16.0684 16.4047V1.85779C16.0684 1.65283 15.9022 1.48669 15.6973 1.48669Z" fill="#515365"/>
<path d="M17.184 2.96875C16.9791 2.96875 16.8129 3.13489 16.8129 3.33984V17.8867C16.8129 18.0913 16.6465 18.2578 16.4418 18.2578H4.78949C4.58457 18.2578 4.4184 18.424 4.4184 18.6289C4.4184 18.8339 4.58457 19 4.78949 19H16.4418C17.0557 19 17.5551 18.5006 17.5551 17.8867V3.33984C17.5551 3.13489 17.3889 2.96875 17.184 2.96875Z" fill="#515365"/>
<path d="M7.4566 2.74609H3.8941C3.68919 2.74609 3.52301 2.91223 3.52301 3.11719V6.67969C3.52301 6.88464 3.68919 7.05078 3.8941 7.05078H7.4566C7.66152 7.05078 7.8277 6.88464 7.8277 6.67969V3.11719C7.8277 2.91223 7.66152 2.74609 7.4566 2.74609ZM7.08551 6.30859H4.2652V3.48828H7.08551V6.30859Z" fill="#515365"/>
<path d="M6.26257 8.73562C6.11762 8.59075 5.88272 8.59071 5.73773 8.73562L4.75125 9.72211L4.29258 9.2634C4.14767 9.11848 3.91277 9.11852 3.76774 9.2634C3.62283 9.40831 3.62283 9.64329 3.76774 9.7882L4.48885 10.5093C4.55847 10.5789 4.65284 10.618 4.75125 10.618C4.8497 10.618 4.94403 10.5789 5.01369 10.5093L6.26257 9.26043C6.40748 9.11552 6.40748 8.88054 6.26257 8.73562Z" fill="#515365"/>
<path d="M12.3427 9.24023H8.01325C7.80833 9.24023 7.64215 9.40637 7.64215 9.61133C7.64215 9.81628 7.80833 9.98242 8.01325 9.98242H12.3427C12.5476 9.98242 12.7138 9.81628 12.7138 9.61133C12.7138 9.40637 12.5476 9.24023 12.3427 9.24023Z" fill="#515365"/>
<path d="M12.1324 2.74609H9.53473C9.32981 2.74609 9.16364 2.91223 9.16364 3.11719C9.16364 3.32214 9.32981 3.48828 9.53473 3.48828H12.1324C12.3373 3.48828 12.5035 3.32214 12.5035 3.11719C12.5035 2.91223 12.3373 2.74609 12.1324 2.74609Z" fill="#515365"/>
<path d="M12.1324 4.52734H9.53473C9.32981 4.52734 9.16364 4.69348 9.16364 4.89844C9.16364 5.10339 9.32981 5.26953 9.53473 5.26953H12.1324C12.3373 5.26953 12.5035 5.10339 12.5035 4.89844C12.5035 4.69348 12.3373 4.52734 12.1324 4.52734Z" fill="#515365"/>
<path d="M12.1324 6.30859H9.53473C9.32981 6.30859 9.16364 6.47473 9.16364 6.67969C9.16364 6.88464 9.32981 7.05078 9.53473 7.05078H12.1324C12.3373 7.05078 12.5035 6.88464 12.5035 6.67969C12.5035 6.47473 12.3373 6.30859 12.1324 6.30859Z" fill="#515365"/>
<path d="M6.26257 11.5695C6.11762 11.4247 5.88272 11.4246 5.73773 11.5695L4.75125 12.556L4.29258 12.0973C4.14767 11.9524 3.91277 11.9524 3.76774 12.0973C3.62283 12.2422 3.62283 12.4772 3.76774 12.6221L4.48885 13.3432C4.55847 13.4128 4.65284 13.4519 4.75125 13.4519C4.8497 13.4519 4.94403 13.4128 5.01369 13.3432L6.26257 12.0943C6.40748 11.9494 6.40748 11.7145 6.26257 11.5695Z" fill="#515365"/>
<path d="M12.3427 12.0605H8.01325C7.80833 12.0605 7.64215 12.2267 7.64215 12.4316C7.64215 12.6366 7.80833 12.8027 8.01325 12.8027H12.3427C12.5476 12.8027 12.7138 12.6366 12.7138 12.4316C12.7138 12.2267 12.5476 12.0605 12.3427 12.0605Z" fill="#515365"/>
</svg>
