<svg width="16" height="16" viewBox="0 0 16 16" fill="none" xmlns="http://www.w3.org/2000/svg">
<path d="M15.2695 10.3354C13.9245 9.5656 12.3943 9.12758 10.8093 9.01028C11.134 9.15489 11.4606 9.29621 11.7681 9.47214C12.1255 9.67695 12.4122 9.97252 12.623 10.3154C13.3763 10.5237 14.1007 10.8147 14.7719 11.1986C14.9126 11.2793 15 11.4411 15 11.6214V13.936H13V14.9315H15.5C15.7764 14.9315 16 14.7089 16 14.4337V11.6214C16 11.0853 15.7197 10.5925 15.2695 10.3354Z" fill="#515365"/>
<path d="M11.2695 10.3354C8.12208 8.53408 3.87795 8.53408 0.730453 10.3354C0.279773 10.5935 0 11.0858 0 11.6215V14.4338C0 14.7089 0.223627 14.9315 0.500004 14.9315H11.5C11.7763 14.9315 12 14.7089 12 14.4338V11.621C12 11.0858 11.7202 10.5935 11.2695 10.3354V10.3354ZM11 13.9361H1.00004V11.6215C1.00004 11.4412 1.08745 11.2793 1.22854 11.1986C4.07423 9.57035 7.9258 9.57035 10.7715 11.1986C10.9126 11.2793 11 11.4412 11 11.621V13.9361Z" fill="#515365"/>
<path d="M9.75102 2.01427C9.83396 2.00563 9.91612 1.99089 10.0001 1.99089C11.3785 1.99089 12.5 3.10736 12.5 4.47947C12.5 5.85157 11.3784 6.96804 10.0001 6.96804C9.91618 6.96804 9.83402 6.95321 9.75108 6.94457C9.53892 7.26347 9.27921 7.5437 8.99438 7.7985C9.31999 7.89831 9.656 7.96345 10.0001 7.96345C11.9297 7.96345 13.5 6.40033 13.5 4.47944C13.5 2.55855 11.9298 0.995422 10.0001 0.995422C9.65594 0.995422 9.31994 1.06056 8.99432 1.16038C9.27915 1.41523 9.53886 1.69538 9.75102 2.01427V2.01427Z" fill="#515365"/>
<path d="M6.00006 7.96348C7.92973 7.96348 9.50005 6.40036 9.50005 4.47947C9.50005 2.55858 7.92976 0.995453 6.00006 0.995453C4.07036 0.995453 2.50006 2.55858 2.50006 4.47947C2.50006 6.40036 4.07038 7.96348 6.00006 7.96348ZM6.00006 1.99089C7.37848 1.99089 8.50004 3.10736 8.50004 4.47947C8.50004 5.85157 7.37846 6.96804 6.00006 6.96804C4.62166 6.96804 3.50007 5.85157 3.50007 4.47947C3.50007 3.10736 4.62166 1.99089 6.00006 1.99089V1.99089Z" fill="#515365"/>
</svg>
