<svg width="16" height="16" viewBox="0 0 16 16" fill="none" xmlns="http://www.w3.org/2000/svg">
<g clip-path="url(#clip0)">
<path d="M7.99998 11.9452C9.84093 11.9452 11.3333 10.4597 11.3333 8.62711C11.3333 6.79456 9.84093 5.30899 7.99998 5.30899C6.15902 5.30899 4.66663 6.79456 4.66663 8.62711C4.66663 10.4597 6.15902 11.9452 7.99998 11.9452Z" fill="#515365"/>
<path d="M14.6667 3.31814H12.5524C12.2852 3.31814 12.0342 3.21446 11.8451 3.02651L10.6263 1.81332C10.3115 1.49998 9.89291 1.32727 9.44759 1.32727H6.55241C6.10709 1.32727 5.68847 1.49998 5.37369 1.81332L4.15494 3.02651C3.96581 3.21446 3.71484 3.31814 3.44759 3.31814H1.33334C0.597969 3.31814 0 3.91338 0 4.64536V13.2724C0 14.0044 0.597969 14.5997 1.33334 14.5997H14.6667C15.402 14.5997 16 14.0045 16 13.2724V4.64536C16 3.91338 15.402 3.31814 14.6667 3.31814ZM8 12.6088C5.79428 12.6088 4 10.8227 4 8.6271C4 6.43145 5.79428 4.64536 8 4.64536C10.2057 4.64536 12 6.43145 12 8.6271C12 10.8227 10.2057 12.6088 8 12.6088ZM13.3333 6.63623C12.9658 6.63623 12.6667 6.33844 12.6667 5.97262C12.6667 5.6068 12.9658 5.30901 13.3333 5.30901C13.7008 5.30901 14 5.6068 14 5.97262C14 6.33844 13.7008 6.63623 13.3333 6.63623Z" fill="#515365"/>
</g>
<defs>
<clipPath id="clip0">
<rect width="16" height="15.9269" fill="white"/>
</clipPath>
</defs>
</svg>
