<svg width="16" height="16" viewBox="0 0 16 16" fill="none" xmlns="http://www.w3.org/2000/svg">
<g clip-path="url(#clip0)">
<path d="M13.8706 6.12564L4.42063 0.327071C3.73694 -0.0919139 2.91034 -0.109334 2.20943 0.280472C1.50853 0.670217 1.09009 1.38012 1.09009 2.1793V13.7236C1.09009 14.932 2.06821 15.9204 3.2704 15.9269C3.27369 15.9269 3.27697 15.927 3.28019 15.927C3.65587 15.9269 4.04738 15.8097 4.41303 15.5876C4.70719 15.409 4.80016 15.0268 4.62069 14.734C4.44122 14.4411 4.05722 14.3486 3.76316 14.5273C3.59212 14.6311 3.42509 14.6848 3.27712 14.6848C2.82353 14.6823 2.33787 14.2956 2.33787 13.7236V2.17933C2.33787 1.83649 2.51737 1.53205 2.818 1.36484C3.11865 1.19764 3.47319 1.20511 3.76609 1.38463L13.2161 7.1832C13.5002 7.35728 13.6627 7.64754 13.662 7.97958C13.6613 8.31159 13.4976 8.6012 13.212 8.77468L6.3796 12.939C6.08572 13.1181 5.99335 13.5004 6.17329 13.7929C6.35319 14.0855 6.73729 14.1774 7.03116 13.9983L13.8628 9.83451C14.5169 9.4373 14.9083 8.74485 14.9099 7.98207C14.9114 7.21938 14.5228 6.52531 13.8706 6.12564Z" fill="#515365"/>
</g>
<defs>
<clipPath id="clip0">
<rect width="16" height="15.9269" fill="white"/>
</clipPath>
</defs>
</svg>
