<svg width="20" height="20" viewBox="0 0 20 20" fill="none" xmlns="http://www.w3.org/2000/svg">
<g clip-path="url(#clip0)">
<path d="M5.625 16.6667C5.46083 16.6667 5.30167 16.6025 5.18333 16.4833C5.03583 16.335 4.97167 16.1233 5.0125 15.9183L5.57083 13.1258C5.595 13.005 5.65417 12.8942 5.74167 12.8067L11.885 6.66332C12.4367 6.11248 13.3342 6.11165 13.885 6.66332L15.0025 7.78082C15.5533 8.33248 15.5533 9.22998 15.0025 9.78082L8.85833 15.925C8.77167 16.0117 8.66 16.0717 8.53917 16.0958L5.74667 16.6542C5.70667 16.6625 5.66583 16.6667 5.625 16.6667ZM8.4175 15.4833H8.42583H8.4175ZM6.75917 13.5583L6.42167 15.245L8.10917 14.9075L14.1183 8.89832C14.1825 8.83415 14.1825 8.72915 14.1183 8.66498L13.0017 7.54832C12.9375 7.48498 12.8333 7.48415 12.7683 7.54832L6.75917 13.5583Z" fill="#515365"/>
<path d="M17.7083 19.1666H2.29166C1.02749 19.1666 -7.62939e-06 18.1391 -7.62939e-06 16.8749V3.12492C-7.62939e-06 1.86075 1.02749 0.833252 2.29166 0.833252H17.7083C18.9725 0.833252 20 1.86075 20 3.12492V16.8749C20 18.1391 18.9725 19.1666 17.7083 19.1666ZM2.29166 2.08325C1.71749 2.08325 1.24999 2.55075 1.24999 3.12492V16.8749C1.24999 17.4491 1.71749 17.9166 2.29166 17.9166H17.7083C18.2825 17.9166 18.75 17.4491 18.75 16.8749V3.12492C18.75 2.55075 18.2825 2.08325 17.7083 2.08325H2.29166Z" fill="#515365"/>
<path d="M19.375 5H0.624992C0.279992 5 -7.62939e-06 4.72 -7.62939e-06 4.375C-7.62939e-06 4.03 0.279992 3.75 0.624992 3.75H19.375C19.72 3.75 20 4.03 20 4.375C20 4.72 19.72 5 19.375 5Z" fill="#515365"/>
</g>
<defs>
<clipPath id="clip0">
<rect width="20" height="20" fill="white"/>
</clipPath>
</defs>
</svg>
