<svg width="20" height="20" viewBox="0 0 20 20" fill="none" xmlns="http://www.w3.org/2000/svg">
<g clip-path="url(#clip0)">
<path d="M10.1283 7.42249C9.00161 7.42249 8.08819 8.33586 8.08819 9.4626C8.08819 10.5893 9.00156 11.5027 10.1283 11.5027C11.255 11.5027 12.1684 10.5893 12.1684 9.4626C12.1684 8.33586 11.2551 7.42249 10.1283 7.42249ZM10.1283 10.5312C9.53811 10.5312 9.05967 10.0528 9.05967 9.46256C9.05967 8.87236 9.53811 8.39392 10.1283 8.39392C10.7185 8.39392 11.1969 8.87236 11.1969 9.46256C11.1969 10.0528 10.7185 10.5312 10.1283 10.5312Z" fill="#515365"/>
<path d="M18.2645 2.75937L5.0038 1.25362C4.48915 1.18045 3.9677 1.33069 3.57089 1.66651C3.17413 1.97416 2.9198 2.4302 2.86657 2.92942L2.62372 4.92096H1.87078C0.802136 4.92096 0.000656344 5.86812 0.000656344 6.93676V16.8701C-0.0262595 17.8891 0.778009 18.7371 1.79709 18.764C1.82164 18.7647 1.84623 18.7648 1.87078 18.7645H15.2043C16.273 18.7645 17.2444 17.9387 17.2444 16.8701V16.4815C17.5757 16.4175 17.89 16.2852 18.1673 16.0929C18.5609 15.7616 18.8128 15.2924 18.8717 14.7814L19.9889 4.92096C20.1028 3.84985 19.3341 2.88632 18.2645 2.75937ZM16.273 16.8701C16.273 17.4044 15.7386 17.793 15.2043 17.793H1.87078C1.3881 17.8072 0.985341 17.4274 0.971162 16.9447C0.970418 16.9198 0.970744 16.895 0.972138 16.8701V15.0729L4.73664 12.3042C5.18887 11.957 5.82583 11.9878 6.24244 12.377L8.88973 14.7086C9.29175 15.0461 9.7978 15.2348 10.3227 15.2429C10.7331 15.2479 11.1367 15.1386 11.4885 14.9271L16.273 12.1584V16.8701H16.273ZM16.273 11.017L10.9784 14.1014C10.5237 14.3707 9.94828 14.322 9.54543 13.98L6.87387 11.6241C6.10819 10.9662 4.98907 10.9258 4.17801 11.527L0.972138 13.8585V6.93676C0.972138 6.40244 1.33646 5.89244 1.87078 5.89244H15.2043C15.7752 5.9161 16.2362 6.36665 16.273 6.93676V11.017ZM19.0183 4.78982C19.018 4.79302 19.0177 4.79628 19.0174 4.79949L17.8759 14.66C17.8778 14.9157 17.7612 15.1578 17.5601 15.3157C17.463 15.4129 17.2444 15.4615 17.2444 15.51V6.93676C17.206 5.83033 16.3111 4.94601 15.2043 4.92096H3.59516L3.81374 3.02657C3.86116 2.78126 3.98941 2.55896 4.17806 2.3951C4.39106 2.24783 4.6486 2.17917 4.90669 2.20078L18.1431 3.73085C18.6772 3.78157 19.069 4.25568 19.0183 4.78982Z" fill="#515365"/>
</g>
<defs>
<clipPath id="clip0">
<rect width="20" height="20" fill="white"/>
</clipPath>
</defs>
</svg>
