<svg width="35" height="35" viewBox="0 0 35 35" fill="none" xmlns="http://www.w3.org/2000/svg">
<path d="M33.25 0.583344H1.75001C1.10572 0.583344 0.583344 1.10572 0.583344 1.75001V4.08334H34.4167V1.75001C34.4167 1.10572 33.8943 0.583344 33.25 0.583344Z" fill="#515365"/>
<path d="M17.5 13.4167C18.4664 13.4167 19.25 12.6331 19.25 11.6667V10.5C19.25 9.53357 18.4664 8.75 17.5 8.75C16.5336 8.75 15.75 9.53357 15.75 10.5V11.6667C15.75 12.6331 16.5336 13.4167 17.5 13.4167Z" fill="#515365"/>
<path d="M21 17.5C21 16.2114 19.9552 15.1667 18.6667 15.1667H16.3333C15.0448 15.1667 14 16.2114 14 17.5V19.8333H21V17.5Z" fill="#515365"/>
<path d="M33.25 0H1.75C0.783569 0 0 0.783569 0 1.75V33.25C0 34.2164 0.783569 35 1.75 35H33.25C34.2164 35 35 34.2164 35 33.25V1.75C35 0.783569 34.2164 0 33.25 0ZM1.75 1.16667H33.25C33.5721 1.16667 33.8333 1.42786 33.8333 1.75V3.5H1.16667V1.75C1.16667 1.42786 1.42786 1.16667 1.75 1.16667ZM33.25 33.8333H1.75C1.42786 33.8333 1.16667 33.5721 1.16667 33.25V4.66667H33.8333V33.25C33.8333 33.5721 33.5721 33.8333 33.25 33.8333Z" fill="#515365"/>
<path d="M2.33334 1.75H3.50001V2.91667H2.33334V1.75Z" fill="#515365"/>
<path d="M5.25 1.75H6.41667V2.91667H5.25V1.75Z" fill="#515365"/>
<path d="M8.16666 1.75H9.33332V2.91667H8.16666V1.75Z" fill="#515365"/>
<path d="M17.5 23.3333C22.3324 23.3333 26.25 19.4158 26.25 14.5833C26.25 9.75091 22.3324 5.83334 17.5 5.83334C12.6676 5.83334 8.75 9.75091 8.75 14.5833C8.75541 19.4135 12.6698 23.3279 17.5 23.3333ZM17.5 7.00001C21.6882 7.00001 25.0833 10.3952 25.0833 14.5833C25.0833 18.7715 21.6882 22.1667 17.5 22.1667C13.3118 22.1667 9.91667 18.7715 9.91667 14.5833C9.92151 10.3972 13.3138 7.00485 17.5 7.00001Z" fill="#515365"/>
<path d="M3.5 24.5H15.1667V25.6667H3.5V24.5Z" fill="#515365"/>
<path d="M15.75 24.5H22.1667V25.6667H15.75V24.5Z" fill="#515365"/>
<path d="M22.75 24.5H31.5V25.6667H22.75V24.5Z" fill="#515365"/>
<path d="M3.5 26.8333H15.75V28H3.5V26.8333Z" fill="#515365"/>
<path d="M16.3333 26.8333H31.5V28H16.3333V26.8333Z" fill="#515365"/>
<path d="M3.5 29.1667H10.5V30.3333H3.5V29.1667Z" fill="#515365"/>
<path d="M11.0833 29.1667H17.5V30.3333H11.0833V29.1667Z" fill="#515365"/>
<path d="M18.0833 29.1667H27.4167V30.3333H18.0833V29.1667Z" fill="#515365"/>
<path d="M28 29.1667H31.5V30.3333H28V29.1667Z" fill="#515365"/>
<path d="M3.5 31.5H31.5V32.6667H3.5V31.5Z" fill="#515365"/>
<path d="M17.5 14C18.7886 14 19.8333 12.9552 19.8333 11.6667V10.5C19.8333 9.21142 18.7886 8.16666 17.5 8.16666C16.2114 8.16666 15.1667 9.21142 15.1667 10.5V11.6667C15.1667 12.9552 16.2114 14 17.5 14ZM16.3333 10.5C16.3333 9.8557 16.8557 9.33332 17.5 9.33332C18.1443 9.33332 18.6667 9.8557 18.6667 10.5V11.6667C18.6667 12.3109 18.1443 12.8333 17.5 12.8333C16.8557 12.8333 16.3333 12.3109 16.3333 11.6667V10.5Z" fill="#515365"/>
<path d="M14 20.4167H21C21.3221 20.4167 21.5833 20.1555 21.5833 19.8333V17.5C21.5813 15.8899 20.2768 14.5853 18.6667 14.5833H16.3333C14.7232 14.5853 13.4187 15.8899 13.4167 17.5V19.8333C13.4167 20.1555 13.6778 20.4167 14 20.4167ZM14.5833 17.5C14.5833 16.5336 15.3669 15.75 16.3333 15.75H18.6667C19.6331 15.75 20.4167 16.5336 20.4167 17.5V19.25H14.5833V17.5Z" fill="#515365"/>
</svg>
