<svg width="35" height="35" viewBox="0 0 35 35" fill="none" xmlns="http://www.w3.org/2000/svg">
<path d="M29.873 18.3307H26.447C25.9807 18.3307 25.5293 18.3944 25.0996 18.5116C24.2521 16.8455 22.5218 15.7008 20.528 15.7008H14.472C12.4782 15.7008 10.7479 16.8455 9.90035 18.5116C9.47071 18.3944 9.01927 18.3307 8.55299 18.3307H5.12695C2.29995 18.3307 0 20.6306 0 23.4577V28.9345C0 30.6307 1.37997 32.0106 3.07617 32.0106H31.9238C33.62 32.0106 35 30.6307 35 28.9345V23.4577C35 20.6306 32.7 18.3307 29.873 18.3307ZM9.34507 20.8279V29.9599H3.07617C2.51077 29.9599 2.05078 29.4999 2.05078 28.9345V23.4577C2.05078 21.7615 3.43075 20.3815 5.12695 20.3815H8.55299C8.83135 20.3815 9.10089 20.4194 9.35751 20.489C9.35013 20.6012 9.34507 20.714 9.34507 20.8279ZM23.6042 29.9599H11.3958V20.8278C11.3958 19.1316 12.7758 17.7516 14.472 17.7516H20.528C22.2242 17.7516 23.6042 19.1316 23.6042 20.8278V29.9599ZM32.9492 28.9345C32.9492 29.4999 32.4892 29.9599 31.9238 29.9599H25.6549V20.8278C25.6549 20.7138 25.6499 20.601 25.6425 20.4889C25.8991 20.4194 26.1687 20.3815 26.447 20.3815H29.873C31.5692 20.3815 32.9492 21.7615 32.9492 23.4577V28.9345Z" fill="#515365"/>
<path d="M6.84 8.64774C4.32786 8.64774 2.28412 10.6915 2.28412 13.2036C2.28405 15.7158 4.32786 17.7595 6.84 17.7595C9.35207 17.7595 11.3959 15.7158 11.3959 13.2036C11.3959 10.6915 9.35214 8.64774 6.84 8.64774ZM6.83993 15.7087C5.45859 15.7087 4.33483 14.585 4.33483 13.2036C4.33483 11.8223 5.45859 10.6985 6.83993 10.6985C8.22127 10.6985 9.34503 11.8223 9.34503 13.2036C9.34503 14.585 8.22127 15.7087 6.83993 15.7087Z" fill="#515365"/>
<path d="M17.5 2.98926C14.1438 2.98926 11.4134 5.71967 11.4134 9.07584C11.4134 12.432 14.1438 15.1624 17.5 15.1624C20.8561 15.1624 23.5866 12.432 23.5866 9.07584C23.5866 5.71974 20.8561 2.98926 17.5 2.98926ZM17.5 13.1116C15.2746 13.1116 13.4642 11.3012 13.4642 9.07584C13.4642 6.85054 15.2746 5.04004 17.5 5.04004C19.7253 5.04004 21.5358 6.85047 21.5358 9.07584C21.5358 11.3012 19.7253 13.1116 17.5 13.1116Z" fill="#515365"/>
<path d="M28.16 8.64774C25.6479 8.64774 23.6041 10.6915 23.6041 13.2036C23.6041 15.7158 25.6479 17.7595 28.16 17.7595C30.6721 17.7595 32.7158 15.7158 32.7158 13.2036C32.7158 10.6915 30.6721 8.64774 28.16 8.64774ZM28.16 15.7087C26.7787 15.7087 25.6549 14.585 25.6549 13.2036C25.6549 11.8223 26.7787 10.6985 28.16 10.6985C29.5413 10.6985 30.6651 11.8223 30.6651 13.2036C30.6651 14.585 29.5413 15.7087 28.16 15.7087Z" fill="#515365"/>
</svg>
