<svg width="17" height="11" viewBox="0 0 17 11" fill="none" xmlns="http://www.w3.org/2000/svg">
<line x1="5.24537e-08" y1="9.60001" x2="1.13333" y2="9.60001" stroke="#515365" stroke-width="1.2"/>
<line x1="3.40002" y1="9.60001" x2="17" y2="9.60001" stroke="#515365" stroke-width="1.2"/>
<line x1="6.79999" y1="5.60001" x2="17" y2="5.60001" stroke="#515365" stroke-width="1.2"/>
<line x1="10.2" y1="1.60001" x2="17" y2="1.60001" stroke="#515365" stroke-width="1.2"/>
<g clip-path="url(#clip0)">
<path d="M7.8064 1.6847L7.54653 1.42483C7.46488 1.34311 7.35601 1.29816 7.23978 1.29816C7.12355 1.29816 7.01461 1.34311 6.93296 1.42483L3.2815 5.07623L1.00012 2.79478C0.918461 2.71319 0.809522 2.66817 0.693296 2.66817C0.577134 2.66817 0.46826 2.71319 0.38654 2.79478L0.126611 3.05458C0.0448911 3.13643 0 3.24544 0 3.36153C0 3.4777 0.0448911 3.58663 0.126611 3.66835L2.70243 6.24404C2.70585 6.24888 2.70946 6.25339 2.71365 6.25752L2.97358 6.51313C3.05524 6.59453 3.16417 6.63523 3.2813 6.63523H3.28266C3.39895 6.63523 3.50789 6.59453 3.58941 6.51313L3.84941 6.25527C3.8536 6.25114 3.85715 6.24772 3.85928 6.24424L7.80633 2.29756C7.97564 2.12864 7.97564 1.85381 7.8064 1.6847Z" fill="#515365"/>
</g>
<line x1="8.48002" y1="-6.55671e-09" x2="8.48002" y2="1.13333" stroke="#515365" stroke-width="0.3"/>
<line x1="7.93335" y1="0.643335" x2="9.06668" y2="0.643335" stroke="#515365" stroke-width="0.3"/>
<defs>
<clipPath id="clip0">
<rect width="7.93333" height="7.93333" fill="white"/>
</clipPath>
</defs>
</svg>
