<svg width="19" height="19" viewBox="0 0 19 19" fill="none" xmlns="http://www.w3.org/2000/svg">
<g clip-path="url(#clip0)">
<path d="M18.5366 17.1459H16.9002V6.70032C16.9002 6.44483 16.6923 6.23694 16.4368 6.23694H15.3795C15.2259 6.23694 15.1015 6.3614 15.1015 6.51496C15.1015 6.66852 15.2259 6.79299 15.3795 6.79299H16.3441V17.1459H13.7032V6.79299H14.0721C14.2257 6.79299 14.3502 6.66852 14.3502 6.51496C14.3502 6.3614 14.2257 6.23694 14.0721 6.23694H13.6105C13.355 6.23694 13.1471 6.44483 13.1471 6.70032V17.1459H11.3766V10.2203C11.3766 9.9648 11.1687 9.75691 10.9132 9.75691H8.08687C7.83138 9.75691 7.62349 9.9648 7.62349 10.2203V17.1459H5.85293V13.2611C5.85293 13.0057 5.64504 12.7978 5.38954 12.7978H2.56326C2.30776 12.7978 2.09987 13.0057 2.09987 13.2611V14.5045C2.09987 14.6581 2.22434 14.7825 2.37789 14.7825C2.53145 14.7825 2.65592 14.6581 2.65592 14.5045V13.3538H5.29684V17.1459H2.65592V15.7974C2.65592 15.6439 2.53145 15.5194 2.37789 15.5194C2.22434 15.5194 2.09987 15.6439 2.09987 15.7974V17.1459H0.463385C0.207887 17.1459 0 17.3538 0 17.6093V18.4959C0 18.7514 0.207887 18.9593 0.463385 18.9593H18.5366C18.7921 18.9593 19 18.7514 19 18.4959V17.6093C19 17.3538 18.7921 17.1459 18.5366 17.1459V17.1459ZM8.17954 10.313H10.8205V17.1459H8.17954V10.313ZM18.4439 18.4032H0.556084V17.702H2.37793H5.57494H7.90155H11.0986H13.4251H16.6221H18.444V18.4032H18.4439Z" fill="#515365"/>
<path d="M2.30996 10.2218L2.15091 11.1491C2.10657 11.4077 2.21088 11.6641 2.42311 11.8183C2.54305 11.9054 2.68336 11.9497 2.8246 11.9497C2.93333 11.9497 3.04261 11.9235 3.14362 11.8704L3.9764 11.4326L4.80917 11.8704C5.04132 11.9924 5.31738 11.9725 5.52968 11.8183C5.74191 11.6641 5.84623 11.4077 5.80188 11.1491L5.64283 10.2218L6.31655 9.56508C6.5044 9.38199 6.57075 9.11324 6.4897 8.86376C6.40862 8.61423 6.19702 8.43581 5.9374 8.39807L5.00633 8.26277L4.58996 7.41909C4.47385 7.18382 4.23876 7.03772 3.9764 7.03772C3.71407 7.03772 3.47898 7.18386 3.3629 7.41909L2.94654 8.26277L2.01543 8.39807C1.75581 8.43581 1.54421 8.6142 1.46313 8.86376C1.38208 9.11328 1.44839 9.38199 1.63624 9.56505L2.30996 10.2218ZM1.99197 9.03557C1.99939 9.01279 2.02426 8.95872 2.0954 8.94836L3.069 8.80687C3.22348 8.78449 3.35697 8.68749 3.4261 8.54747L3.86154 7.6652C3.89335 7.60074 3.95246 7.59376 3.9764 7.59376C4.00033 7.59376 4.05945 7.6007 4.09129 7.6652L4.52673 8.54744C4.59583 8.68745 4.72931 8.78445 4.88376 8.80687L5.85743 8.94836C5.92857 8.95872 5.95344 9.01279 5.96086 9.03557C5.96828 9.05836 5.97993 9.11673 5.92842 9.16686L5.22394 9.85361C5.11209 9.96252 5.0611 10.1195 5.08753 10.2734L5.25385 11.2431C5.26598 11.3139 5.22223 11.3543 5.20286 11.3684C5.18345 11.3825 5.1315 11.4116 5.06797 11.3781L4.19709 10.9203C4.12799 10.8839 4.05217 10.8658 3.9764 10.8658C3.90062 10.8658 3.8248 10.884 3.75571 10.9203L2.88482 11.3781C2.82118 11.4116 2.7693 11.3825 2.74993 11.3684C2.73056 11.3543 2.68681 11.3139 2.69894 11.2431L2.86527 10.2734C2.89169 10.1195 2.84066 9.96256 2.72893 9.85364L2.02437 9.1669C1.9729 9.11673 1.98455 9.05836 1.99197 9.03557V9.03557Z" fill="#515365"/>
<path d="M7.83352 6.83913L7.67447 7.76649C7.63012 8.02503 7.7344 8.28142 7.94663 8.43561C8.06656 8.52274 8.20687 8.56701 8.34815 8.56701C8.45688 8.56701 8.56617 8.54078 8.66718 8.48771L9.49995 8.04989L10.3327 8.48771C10.5649 8.60984 10.841 8.58983 11.0533 8.43561C11.2655 8.28142 11.3698 8.02499 11.3255 7.76649L11.1664 6.83913L11.8401 6.1824C12.028 5.9993 12.0943 5.73056 12.0132 5.48107C11.9322 5.23155 11.7206 5.05316 11.4609 5.01542L10.5299 4.88012L10.1135 4.0364C9.99736 3.80117 9.76227 3.65503 9.49995 3.65503C9.23762 3.65503 9.00253 3.80117 8.88642 4.0364L8.47005 4.88012L7.53894 5.01542C7.27937 5.05316 7.06773 5.23155 6.98665 5.48107C6.90556 5.73052 6.97188 5.9993 7.15976 6.18244L7.83352 6.83913ZM7.51549 5.65289C7.52291 5.6301 7.54778 5.57607 7.61892 5.56572L8.59266 5.42422C8.74711 5.40173 8.88052 5.3048 8.94962 5.16482L9.38506 4.28251C9.41686 4.21805 9.47597 4.21111 9.49991 4.21111C9.52385 4.21111 9.58296 4.21805 9.61476 4.28251L10.0503 5.16494C10.1193 5.30484 10.2528 5.40173 10.4073 5.42422L11.3809 5.56572C11.4521 5.57607 11.4769 5.63018 11.4844 5.65292C11.4918 5.67571 11.5034 5.73404 11.4519 5.78422L10.7474 6.471C10.6356 6.57995 10.5847 6.73681 10.611 6.89071L10.7774 7.86045C10.7895 7.93129 10.7457 7.97167 10.7264 7.98573C10.707 7.99976 10.655 8.029 10.5914 7.99545L9.7206 7.53763C9.65154 7.5013 9.57572 7.48312 9.49991 7.48312C9.42413 7.48312 9.34832 7.5013 9.27922 7.5376L8.40834 7.99545C8.34466 8.02896 8.29278 7.99976 8.27345 7.98573C8.25408 7.97167 8.21036 7.93129 8.2225 7.86045L8.38882 6.89071C8.41521 6.73689 8.36426 6.57999 8.25245 6.47096L7.54789 5.78425C7.49645 5.73405 7.50811 5.67571 7.51549 5.65289V5.65289Z" fill="#515365"/>
<path d="M13.3571 3.22475L13.1981 4.15207C13.1537 4.41061 13.258 4.66704 13.4702 4.82123C13.6825 4.97542 13.9585 4.99535 14.1908 4.87333L15.0236 4.43551L15.8563 4.87333C15.9573 4.9264 16.0666 4.95263 16.1754 4.95263C16.3167 4.95263 16.457 4.90836 16.5769 4.82123C16.7891 4.66704 16.8934 4.41061 16.849 4.15207L16.69 3.22475L17.3637 2.56802C17.5516 2.38492 17.6179 2.11618 17.5369 1.86673C17.4558 1.6172 17.2442 1.43878 16.9846 1.40104L16.0535 1.2657L15.6371 0.422022C15.521 0.186786 15.2859 0.0406494 15.0236 0.0406494C14.7612 0.0406494 14.5261 0.186786 14.41 0.422022L13.9936 1.2657L13.0626 1.40104C12.803 1.43875 12.5913 1.61717 12.5102 1.86669C12.4292 2.11614 12.4955 2.38492 12.6834 2.56802L13.3571 3.22475ZM13.0391 2.03854C13.0465 2.01576 13.0714 1.96169 13.1426 1.95134L14.1161 1.80984C14.2707 1.78742 14.4042 1.69046 14.4733 1.55044L14.9087 0.668169C14.9405 0.60371 14.9997 0.596771 15.0236 0.596771C15.0475 0.596771 15.1066 0.60371 15.1384 0.668169L15.5739 1.55048C15.643 1.69046 15.7765 1.78746 15.9309 1.80984L16.9046 1.95134C16.9757 1.96169 17.0006 2.0158 17.008 2.03854C17.0154 2.06133 17.027 2.11967 16.9756 2.16984L16.271 2.85666C16.1593 2.96561 16.1083 3.12247 16.1346 3.27636L16.301 4.24607C16.3131 4.31695 16.2694 4.35732 16.25 4.37139C16.2306 4.38549 16.1787 4.41462 16.1151 4.38111L15.2442 3.92329C15.1751 3.88696 15.0993 3.86878 15.0235 3.86878C14.9477 3.86878 14.8719 3.88696 14.8029 3.92325L13.932 4.38111C13.8684 4.41462 13.8164 4.38541 13.7971 4.37139C13.7777 4.35729 13.734 4.31695 13.7461 4.24607L13.9124 3.27644C13.9388 3.12258 13.8879 2.96568 13.776 2.85662L13.0715 2.16984C13.02 2.11967 13.0317 2.06129 13.0391 2.03854V2.03854Z" fill="#515365"/>
</g>
<defs>
<clipPath id="clip0">
<rect width="19" height="19" fill="white"/>
</clipPath>
</defs>
</svg>
