<svg width="16" height="16" viewBox="0 0 16 16" fill="none" xmlns="http://www.w3.org/2000/svg">
<g clip-path="url(#clip0)">
<path d="M8.00001 7.96347C5.79445 7.96347 4 6.17724 4 3.98172C4 1.7862 5.79445 0 8.00001 0C10.2056 0 12 1.78623 12 3.98175C12 6.17727 10.2056 7.96347 8.00001 7.96347V7.96347ZM8.00001 0.995445C6.34573 0.995445 5.00001 2.33499 5.00001 3.98175C5.00001 5.62851 6.3457 6.96805 8.00001 6.96805C9.65433 6.96805 11 5.62848 11 3.98175C11 2.33501 9.6543 0.995445 8.00001 0.995445V0.995445Z" fill="#515365"/>
<path d="M14.5 15.9269H1.50001C1.22363 15.9269 1 15.7043 1 15.4292V12.003C1 11.4888 1.26416 11.0056 1.68897 10.7412C5.44384 8.40962 10.5596 8.41011 14.3106 10.7407C14.7359 11.0056 15 11.4888 15 12.003V15.4292C15 15.7043 14.7764 15.9269 14.5 15.9269V15.9269ZM2.00001 14.9315H14V12.003C14 11.8295 13.916 11.6691 13.7808 11.585C10.3477 9.45177 5.65479 9.45029 2.21879 11.5855C2.08403 11.6691 2.00004 11.8295 2.00004 12.0031L2.00001 14.9315Z" fill="#515365"/>
</g>
<defs>
<clipPath id="clip0">
<rect width="16" height="15.9269" fill="white"/>
</clipPath>
</defs>
</svg>
