<svg width="16" height="16" viewBox="0 0 16 16" fill="none" xmlns="http://www.w3.org/2000/svg">
<g clip-path="url(#clip0)">
<path d="M1.875 8.46119H12.25V3.73288H1.875V8.46119ZM2.8125 4.6661H11.3125V7.52797H2.8125V4.6661Z" fill="#515365"/>
<path d="M1.875 9.39441H6.59375V10.3276H1.875V9.39441Z" fill="#515365"/>
<path d="M1.875 11.2608H6.59375V12.1941H1.875V11.2608Z" fill="#515365"/>
<path d="M7.53125 14.0605H12.25V9.39441H7.53125V14.0605ZM8.46875 10.3276H11.3125V13.1273H8.46875V10.3276Z" fill="#515365"/>
<path d="M1.875 13.1273H6.59375V14.0605H1.875V13.1273Z" fill="#515365"/>
<path d="M1.875 0V1.86644H0V14.5271C0 15.299 0.630844 15.9269 1.40625 15.9269H14.5931C14.5985 15.9269 14.6039 15.9269 14.6093 15.9268C15.3775 15.9185 16 15.2938 16 14.5271V0H1.875ZM1.40625 14.9937C1.14778 14.9937 0.9375 14.7844 0.9375 14.5271V2.79966H13.1875V14.5271C13.1875 14.6888 13.2147 14.846 13.267 14.9937H1.40625ZM15.0625 14.5271C15.0625 14.7814 14.8572 14.9888 14.6029 14.9936C14.4749 14.9962 14.3573 14.9491 14.2669 14.8616C14.1754 14.773 14.125 14.6542 14.125 14.5271V1.86644H2.8125V0.933219H15.0625V14.5271Z" fill="#515365"/>
</g>
<defs>
<clipPath id="clip0">
<rect width="16" height="15.9269" fill="white"/>
</clipPath>
</defs>
</svg>
