<svg width="15" height="15" viewBox="0 0 15 15" fill="none" xmlns="http://www.w3.org/2000/svg">
<path d="M4.88673 13.1314C10.1936 13.1314 13.0957 8.73485 13.0957 4.92245C13.0957 4.79758 13.0931 4.67323 13.0875 4.54957C13.6508 4.14228 14.1404 3.63403 14.5267 3.05551C14.0098 3.28539 13.4534 3.43993 12.8699 3.50984C13.4655 3.15252 13.9229 2.58751 14.1385 1.91397C13.5811 2.24446 12.9637 2.48457 12.3065 2.61426C11.78 2.05346 11.0304 1.70276 10.2004 1.70276C8.6072 1.70276 7.31507 2.9948 7.31507 4.58749C7.31507 4.81401 7.34044 5.03417 7.38989 5.24538C4.99199 5.12472 2.86559 3.97673 1.44275 2.23096C1.19507 2.65726 1.05214 3.15261 1.05214 3.68115C1.05214 4.682 1.56151 5.56581 2.33602 6.08266C1.86268 6.06813 1.41807 5.93818 1.02935 5.7219C1.02892 5.73402 1.02892 5.7458 1.02892 5.7587C1.02892 7.15601 2.02341 8.32266 3.34375 8.58702C3.10123 8.65298 2.84607 8.6885 2.58292 8.6885C2.39733 8.6885 2.21639 8.67027 2.04061 8.63647C2.40791 9.78283 3.47309 10.617 4.73589 10.6404C3.74837 11.4144 2.5044 11.8754 1.15242 11.8754C0.919878 11.8754 0.690004 11.8621 0.464172 11.8354C1.74108 12.6539 3.25732 13.1315 4.88682 13.1315" fill="white"/>
</svg>
