<svg width="23" height="23" viewBox="0 0 23 23" fill="none" xmlns="http://www.w3.org/2000/svg">
<g clip-path="url(#clip0)">
<path d="M8.31998 20.9251C8.85988 22.1457 10.0818 23 11.5 23C12.9183 23 14.1401 22.1457 14.6801 20.9251H8.31998Z" fill="white"/>
<path d="M11.4998 2.19743C12.4357 2.19743 13.3343 2.36256 14.1683 2.66489V2.56216C14.1683 1.14938 13.0189 0 11.6062 0H11.3939C9.98107 0 8.8317 1.14938 8.8317 2.56216V2.66359C9.6652 2.36216 10.5636 2.19743 11.4998 2.19743Z" fill="white"/>
<path d="M19.9219 19.5753H3.07814C2.75948 19.5753 2.46759 19.3604 2.40131 19.0486C2.33571 18.74 2.47637 18.4354 2.76173 18.3035C2.82945 18.2596 3.33917 17.9032 3.84947 16.8249C4.78669 14.8446 4.98341 12.0551 4.98341 10.0636C4.98341 6.47047 7.90667 3.5473 11.4998 3.5473C15.0844 3.5473 18.0023 6.45639 18.0161 10.0378C18.0164 10.0464 18.0166 10.055 18.0166 10.0636C18.0166 12.0551 18.2133 14.8446 19.1506 16.8249C19.6609 17.9032 20.1705 18.2597 20.2383 18.3035C20.5236 18.4354 20.6644 18.7399 20.5987 19.0486C20.5324 19.3603 20.2406 19.5753 19.9219 19.5753ZM20.2458 18.3083H20.2463H20.2458Z" fill="white"/>
</g>
<defs>
<clipPath id="clip0">
<rect width="23" height="23" fill="white"/>
</clipPath>
</defs>
</svg>
