<svg width="16" height="17" viewBox="0 0 16 17" fill="none" xmlns="http://www.w3.org/2000/svg">
<g clip-path="url(#clip0)">
<path d="M14.276 0.674438H1.72387C0.773314 0.674438 0 1.44434 0 2.39056V14.8852C0 15.8316 0.773314 16.6013 1.72387 16.6013H14.276C15.2267 16.6013 16 15.8316 16 14.8852V2.39056C16 1.44434 15.2267 0.674438 14.276 0.674438V0.674438ZM1.72387 1.60766H14.276C14.7097 1.60766 15.0625 1.95883 15.0625 2.39056V4.67281H0.937498V2.39056C0.937498 1.95883 1.29028 1.60766 1.72387 1.60766V1.60766ZM14.276 15.6681H1.72387C1.29028 15.6681 0.937498 15.317 0.937498 14.8852V5.60603H15.0625V14.8852C15.0625 15.317 14.7097 15.6681 14.276 15.6681V15.6681Z" fill="#515365"/>
<path d="M4.48535 3.6068H11.5145C11.7734 3.6068 11.9833 3.39792 11.9833 3.14019C11.9833 2.88259 11.7734 2.67358 11.5145 2.67358H4.48535C4.22656 2.67358 4.0166 2.88259 4.0166 3.14019C4.0166 3.39792 4.22656 3.6068 4.48535 3.6068V3.6068Z" fill="#515365"/>
<path d="M2.47711 10.1041H4.48554C4.74432 10.1041 4.95429 9.89522 4.95429 9.63749V7.63836C4.95429 7.38063 4.74432 7.17175 4.48554 7.17175H2.47711C2.21832 7.17175 2.00836 7.38063 2.00836 7.63836V9.63749C2.00836 9.89522 2.2182 10.1041 2.47711 10.1041ZM2.94586 8.10497H4.01679V9.17088H2.94586V8.10497Z" fill="#515365"/>
<path d="M13.523 9.17084H6.49377C6.23486 9.17084 6.02502 9.37984 6.02502 9.63745C6.02502 9.89518 6.23486 10.1041 6.49377 10.1041H13.523C13.7817 10.1041 13.9917 9.89518 13.9917 9.63745C13.9917 9.37984 13.7817 9.17084 13.523 9.17084Z" fill="#515365"/>
<path d="M13.523 11.1701H2.47711C2.21832 11.1701 2.00836 11.379 2.00836 11.6367C2.00836 11.8943 2.21832 12.1033 2.47711 12.1033H13.523C13.7818 12.1033 13.9918 11.8943 13.9918 11.6367C13.9918 11.379 13.7818 11.1701 13.523 11.1701Z" fill="#515365"/>
<path d="M13.523 13.1693H2.47711C2.21832 13.1693 2.00836 13.3781 2.00836 13.6359C2.00836 13.8936 2.21832 14.1025 2.47711 14.1025H13.523C13.7818 14.1025 13.9918 13.8936 13.9918 13.6359C13.9918 13.3781 13.7818 13.1693 13.523 13.1693Z" fill="#515365"/>
<path d="M13.523 7.17175H6.49377C6.23486 7.17175 6.02502 7.38063 6.02502 7.63836C6.02502 7.89609 6.23486 8.10497 6.49377 8.10497H13.523C13.7817 8.10497 13.9917 7.89609 13.9917 7.63836C13.9917 7.38063 13.7817 7.17175 13.523 7.17175Z" fill="#515365"/>
</g>
<defs>
<clipPath id="clip0">
<rect y="0.674438" width="16" height="15.9269" fill="white"/>
</clipPath>
</defs>
</svg>
