<svg width="15" height="15" viewBox="0 0 15 15" fill="none" xmlns="http://www.w3.org/2000/svg">
<path d="M9.70035 0H6.12305C4.52897 0 3.4255 0.349489 2.43234 1.16992C1.65126 1.8438 1.18512 2.82318 1.18512 3.78985C1.18512 5.27921 2.32065 6.86198 4.42486 6.86198C4.62718 6.86198 4.85119 6.84122 5.04886 6.82279L5.01974 6.89358C4.93515 7.09621 4.85506 7.28738 4.85506 7.58575C4.85506 8.16668 5.1353 8.525 5.40625 8.87123L5.44033 8.91508L5.37976 8.91926C4.51084 8.97875 2.89352 9.08967 1.71214 9.81575C0.316815 10.6453 0.208374 11.8521 0.208374 12.2021C0.208374 13.5945 1.50595 14.9998 4.40503 14.9998C7.77599 14.9998 9.53986 13.1401 9.53986 11.3031C9.54017 9.94433 8.74344 9.27355 7.89776 8.5614L7.18437 8.0065C6.96393 7.82385 6.68942 7.59659 6.68942 7.17553C6.68942 6.7616 6.96393 6.48832 7.20621 6.24728L7.23147 6.22171C8.00186 5.61491 8.87496 4.92693 8.87496 3.43881C8.87496 1.94264 7.94005 1.16946 7.49048 0.797815H8.6776C8.69216 0.797815 8.70673 0.793787 8.71881 0.785886L9.74141 0.142987C9.77053 0.124552 9.78416 0.0890764 9.77456 0.0559245C9.76542 0.0227726 9.73475 0 9.70035 0ZM5.36226 14.1802C3.30746 14.1802 1.92685 13.2205 1.92685 11.792C1.92685 10.8593 2.49152 10.1815 3.60366 9.77857C4.49427 9.47881 5.64389 9.46394 5.65536 9.46394C5.85008 9.46394 5.94799 9.46394 6.10353 9.48346C7.5413 10.5067 8.23253 11.0439 8.23253 12.0671C8.23237 13.3706 7.13247 14.1802 5.36226 14.1802ZM5.34289 6.31374C3.61837 6.31374 2.90266 4.04686 2.90266 2.83309C2.90266 2.21591 3.04302 1.74218 3.33178 1.38448C3.64517 0.992389 4.1818 0.739102 4.69891 0.739102C6.2823 0.739102 7.15788 2.86733 7.15788 4.33825C7.15788 4.57032 7.15788 5.27627 6.67021 5.76657C6.34225 6.09391 5.80888 6.31374 5.34289 6.31374Z" fill="white"/>
<path d="M14.7142 7.00575H12.8292V5.1274C12.8292 5.08464 12.7943 5.04994 12.7517 5.04994H11.9409C11.8981 5.04994 11.8634 5.08464 11.8634 5.1274V7.00575H9.98786C9.9451 7.00575 9.9104 7.04045 9.9104 7.08321V7.90488C9.9104 7.94748 9.9451 7.98234 9.98786 7.98234H11.8634V9.87277C11.8634 9.91537 11.8981 9.95023 11.9409 9.95023H12.7517C12.7943 9.95023 12.8292 9.91537 12.8292 9.87277V7.98203H14.7142C14.7569 7.98203 14.7916 7.94748 14.7916 7.90457V7.08321C14.7916 7.0403 14.7571 7.00575 14.7142 7.00575Z" fill="white"/>
</svg>
