<svg width="19" height="19" viewBox="0 0 19 19" fill="none" xmlns="http://www.w3.org/2000/svg">
<path d="M9.33888 0.58448C5.92489 0.58448 3.14734 3.36203 3.14734 6.77602C3.14734 11.067 9.34497 18.397 9.34497 18.397C9.34497 18.397 15.5304 10.856 15.5304 6.77602C15.5304 3.36203 12.753 0.58448 9.33888 0.58448ZM11.207 8.58891C10.6919 9.10391 10.0154 9.36146 9.33888 9.36146C8.66243 9.36146 7.98576 9.10391 7.47087 8.58891C6.44076 7.5589 6.44076 5.88289 7.47087 4.85278C7.96967 4.35376 8.63318 4.07892 9.33888 4.07892C10.0446 4.07892 10.708 4.35387 11.207 4.85278C12.2371 5.88289 12.2371 7.5589 11.207 8.58891Z" fill="white"/>
</svg>
