<svg width="174" height="45" viewBox="0 0 174 45" fill="none" xmlns="http://www.w3.org/2000/svg">
<path d="M17.6573 0.642187C14.1372 1.4033 9.90348 3.54393 7.38229 5.87483L5.57465 7.53977L2.86319 5.304L0.151723 3.1158L0.00901444 14.0092C-0.0385551 20.5262 0.104154 25.9016 0.389571 27.3763C1.72152 33.6079 6.71632 39.9822 12.5198 42.7412C21.3202 46.9273 31.3098 45.2148 38.2549 38.2697C47.1504 29.3742 47.1504 15.6266 38.2549 6.82623C34.7823 3.35365 31.5 1.54601 27.1712 0.642187C23.2705 -0.214066 21.5104 -0.214066 17.6573 0.642187ZM28.2653 13.0578C29.6924 13.9141 31.1195 15.3412 32.0233 16.7683C33.2601 18.8137 33.4504 19.5749 33.4504 22.5242C33.4504 25.4735 33.2601 26.2346 32.0233 28.2801C28.3129 34.2263 20.0834 35.5106 15.041 30.944C12.4722 28.6131 11.3306 26.0919 11.3306 22.5242C11.3306 18.8613 12.5198 16.3401 15.1837 14.0568C17.7049 11.8686 19.3222 11.3453 23.0327 11.488C25.316 11.5832 26.4577 11.9162 28.2653 13.0578Z" fill="white"/>
<path d="M151.739 12.9425C151.551 16.1738 151.438 31.6019 151.607 33.0962L151.758 34.497L152.04 33.6565C152.398 32.5358 152.435 11.579 152.078 11.2241C151.908 11.056 151.833 11.4483 151.739 12.9425Z" fill="white"/>
<path d="M56.8607 19.7505C56.8607 29.0741 57.0034 29.8352 59.5722 32.2137C62.0458 34.5446 65.3757 35.1154 68.6104 33.7835C70.8937 32.8321 71.9878 31.8331 73.0819 29.645C76.1739 23.5561 70.5607 16.2779 63.7583 17.5623C61.2371 18.038 61.6652 18.9418 64.234 18.5613C69.8472 17.705 74.3663 23.2706 72.3208 28.5509C71.1316 31.738 68.8482 33.3078 65.3757 33.3078C62.2836 33.3078 60.7138 32.4516 58.9062 29.7401C57.8597 28.2654 57.8121 27.6946 57.8121 19.7029C57.8121 14.3276 57.6218 11.188 57.3364 11.188C57.051 11.188 56.8607 14.3751 56.8607 19.7505Z" fill="white"/>
<path d="M129.642 19.7505C129.642 29.0741 129.785 29.8352 132.354 32.2137C134.922 34.6397 138.395 35.163 141.82 33.5932C147.766 30.8817 148.432 22.6046 143.009 18.9418C141.106 17.6574 138.775 17.1817 136.54 17.5623C134.066 18.038 134.447 18.9418 136.968 18.5612C142.676 17.705 147.195 23.1755 145.102 28.5984C143.913 31.738 141.63 33.3078 138.157 33.3078C135.065 33.3078 133.495 32.4515 131.688 29.7401C130.641 28.2654 130.594 27.6946 130.594 19.7029C130.594 14.3275 130.403 11.188 130.118 11.188C129.832 11.188 129.642 14.3751 129.642 19.7505Z" fill="white"/>
<path d="M83.6423 17.8477C79.9319 18.704 77.3156 22.1766 77.3156 26.1724C77.3156 32.8321 84.8791 36.7804 90.4447 32.9748C92.7281 31.405 91.8718 30.9293 89.3982 32.404C85.7829 34.5446 81.8822 33.4981 79.361 29.7401C76.3166 25.3161 80.027 18.7991 85.5926 18.7991C88.1614 18.7991 90.1118 19.6554 91.5388 21.463C93.3941 23.8415 93.0611 24.0318 87.0197 24.0318C83.4996 24.0318 81.6444 24.222 81.8347 24.5075C82.2152 25.1259 93.9649 25.1259 93.9649 24.555C93.9649 23.5561 92.8708 21.3679 91.9194 20.3213C89.9215 18.1331 86.544 17.1342 83.6423 17.8477Z" fill="white"/>
<path d="M163.083 18.0757C159.373 18.9319 156.757 22.4045 156.757 26.4004C156.757 33.0601 164.32 37.0084 169.886 33.2028C172.169 31.633 171.313 31.1573 168.839 32.632C165.224 34.7726 161.323 33.7261 158.802 29.9681C155.758 25.5441 159.468 19.0271 165.034 19.0271C167.603 19.0271 169.553 19.8833 170.98 21.691C172.835 24.0695 172.502 24.2597 166.461 24.2597C162.941 24.2597 161.086 24.45 161.276 24.7354C161.656 25.3538 173.406 25.3538 173.406 24.783C173.406 23.784 172.312 21.5958 171.361 20.5493C169.363 18.3611 165.985 17.3621 163.083 18.0757Z" fill="white"/>
<path d="M112.993 18.1331C109.425 19.7029 107.522 22.7949 107.855 26.6957C108.283 31.9283 113.516 35.5436 118.606 34.2116C120.509 33.6884 119.7 33.3078 116.703 33.3078C112.993 33.3078 110.947 32.0234 109.568 28.8839C107.047 23.2231 112.327 16.9915 118.178 18.704C122.649 20.0835 123.934 22.4144 123.934 29.2644C123.934 32.1186 124.124 34.0214 124.41 34.0214C125.075 34.0214 125.028 24.4599 124.362 22.7474C122.792 18.5137 117.274 16.2779 112.993 18.1331Z" fill="white"/>
</svg>
