<svg width="20" height="20" viewBox="0 0 20 20" fill="none" xmlns="http://www.w3.org/2000/svg">
<path d="M19.9956 18.5887L18.8239 12.1279C18.795 11.9684 18.6422 11.8625 18.4827 11.8914C18.3231 11.9203 18.2173 12.0731 18.2462 12.2326L18.7416 14.9644L14.922 10.5277L17.491 9.9543L17.8714 10.1661L18.0366 11.0768C18.0655 11.2364 18.2182 11.3422 18.3778 11.3133C18.5373 11.2844 18.6431 11.1316 18.6143 10.9721L18.4243 9.92469C18.4086 9.8382 18.355 9.76332 18.2782 9.72059L17.6789 9.38696C17.6789 9.38696 17.6789 9.38696 17.6789 9.38696L15.7848 8.33262H15.7848L14.3234 7.51911C14.3233 7.51911 14.3233 7.51907 14.3233 7.51907C14.3232 7.51903 14.3231 7.51895 14.323 7.51888C14.3117 7.51263 14.3001 7.50724 14.2883 7.50259C14.2846 7.50114 14.2808 7.50016 14.277 7.49888C14.2688 7.49599 14.2605 7.49321 14.2521 7.49106C14.2473 7.48985 14.2425 7.48915 14.2377 7.48821C14.2301 7.48673 14.2226 7.48524 14.2149 7.48434C14.2098 7.48372 14.2047 7.48352 14.1995 7.48321C14.1921 7.48274 14.1847 7.48235 14.1773 7.48243C14.1721 7.48247 14.1668 7.48286 14.1615 7.48317C14.1543 7.48364 14.147 7.48431 14.1397 7.48532C14.1345 7.48606 14.1292 7.487 14.124 7.48806C14.1169 7.48946 14.1098 7.4911 14.1028 7.49302C14.0975 7.49446 14.0923 7.49602 14.0871 7.49774C14.0803 7.50005 14.0736 7.50267 14.0669 7.50548C14.0617 7.50767 14.0566 7.50981 14.0515 7.51231C14.0493 7.51341 14.047 7.51415 14.0448 7.51528L13.3742 7.86485C13.8731 6.93458 14.1251 6.03361 14.1251 5.17166C14.1251 2.90741 12.283 1.06531 10.0187 1.06531C7.7545 1.06531 5.91263 2.90741 5.91263 5.17166C5.91263 6.04197 6.16935 6.95208 6.67802 7.89196L5.9554 7.51528C5.95318 7.51411 5.95079 7.51333 5.94853 7.51224C5.94361 7.50981 5.93853 7.5077 5.93353 7.50559C5.92677 7.50274 5.91993 7.50009 5.91302 7.49774C5.9079 7.49602 5.90271 7.4945 5.89751 7.49306C5.89048 7.49114 5.88341 7.48946 5.8763 7.48806C5.87103 7.487 5.86572 7.48606 5.8604 7.48532C5.85325 7.48431 5.84607 7.48368 5.83888 7.48321C5.83349 7.48286 5.8281 7.48251 5.82275 7.48243C5.81556 7.48235 5.80841 7.48274 5.80122 7.48317C5.79583 7.48352 5.79044 7.48372 5.78505 7.48438C5.77775 7.48524 5.77052 7.48669 5.76329 7.48809C5.75818 7.48911 5.75302 7.48985 5.74794 7.49114C5.73993 7.49317 5.73208 7.49587 5.72423 7.49856C5.72013 7.49997 5.71595 7.50106 5.71185 7.50267C5.70005 7.50731 5.68853 7.5127 5.67728 7.51892C5.67716 7.51895 5.67708 7.51903 5.67697 7.51911C5.67693 7.51911 5.67693 7.51915 5.67689 7.51915L1.7221 9.72059C1.6453 9.76332 1.59171 9.8382 1.57608 9.92469L0.462143 16.0667C0.433236 16.2261 0.539095 16.379 0.698626 16.4079C0.858196 16.4369 1.01093 16.3309 1.03984 16.1714L1.37401 14.3288L5.17326 12.3204L4.86771 16.2655L0.681907 18.145L0.829211 17.3325C0.858118 17.173 0.752298 17.0202 0.592767 16.9913C0.433354 16.9624 0.280503 17.0682 0.251557 17.2277L0.00472241 18.5888C-0.0147306 18.6959 0.0268317 18.8051 0.112613 18.8723C0.16523 18.9134 0.229097 18.9347 0.293549 18.9347C0.334291 18.9347 0.375268 18.9262 0.413744 18.9089L5.14685 16.7837L9.87797 18.908C9.87808 18.9081 9.8782 18.9081 9.87832 18.9082L9.87992 18.9089C9.88258 18.9101 9.88535 18.9109 9.88808 18.912C9.89242 18.9138 9.89679 18.9155 9.90125 18.9171C9.9055 18.9186 9.9098 18.9202 9.91418 18.9215C9.91699 18.9223 9.9198 18.9231 9.92261 18.9239C9.92629 18.9249 9.92992 18.9259 9.93367 18.9267C9.93976 18.9281 9.94593 18.9292 9.95207 18.9302C9.955 18.9307 9.95789 18.9314 9.96086 18.9318C9.96285 18.9321 9.96484 18.9323 9.96683 18.9326C9.97664 18.9337 9.98656 18.9343 9.9964 18.9344C9.99765 18.9344 9.9989 18.9347 10.0002 18.9347C10.0008 18.9347 10.0014 18.9345 10.002 18.9345C10.0139 18.9345 10.0257 18.9335 10.0375 18.932C10.039 18.9318 10.0405 18.9318 10.0419 18.9316C10.0442 18.9313 10.0464 18.9305 10.0486 18.9302C10.0578 18.9287 10.067 18.9267 10.0761 18.9242C10.0786 18.9236 10.0811 18.9232 10.0836 18.9225C10.0839 18.9224 10.0841 18.9224 10.0844 18.9223C10.0852 18.9221 10.0859 18.9216 10.0868 18.9214C10.0982 18.9179 10.1094 18.9138 10.1204 18.9089L14.8534 16.7837L19.5864 18.9088C19.591 18.9109 19.5957 18.9124 19.6004 18.9142C19.605 18.916 19.6095 18.918 19.6143 18.9195C19.6204 18.9216 19.6267 18.9231 19.6329 18.9247C19.6368 18.9257 19.6405 18.927 19.6445 18.9278C19.652 18.9294 19.6596 18.9305 19.6673 18.9315C19.67 18.9319 19.6727 18.9325 19.6754 18.9328C19.6858 18.9339 19.6962 18.9345 19.7067 18.9345H19.7067C19.7068 18.9345 19.7068 18.9345 19.7068 18.9345C19.7211 18.9345 19.7353 18.9331 19.7495 18.931C19.7528 18.9305 19.7561 18.93 19.7594 18.9294C19.7734 18.9269 19.7873 18.9236 19.8011 18.9189C19.8019 18.9186 19.8028 18.9182 19.8036 18.9179C19.8127 18.9147 19.8217 18.9113 19.8305 18.9071C19.8331 18.9059 19.8353 18.9041 19.8379 18.9029C19.8453 18.8991 19.8524 18.8949 19.8595 18.8905C19.8666 18.8861 19.8737 18.8818 19.8803 18.8768C19.8827 18.8751 19.8852 18.8739 19.8875 18.8721C19.8927 18.8681 19.8972 18.8634 19.902 18.8591C19.9059 18.8556 19.9099 18.8523 19.9136 18.8487C19.9225 18.8399 19.9307 18.8305 19.9382 18.8208C19.9396 18.8189 19.9413 18.8173 19.9427 18.8155C19.9514 18.8036 19.9592 18.7911 19.966 18.7782C19.9679 18.7745 19.9694 18.7707 19.9712 18.7669C19.9757 18.7574 19.9799 18.7478 19.9834 18.7378C19.9852 18.7328 19.9866 18.7277 19.988 18.7226C19.9907 18.7134 19.9929 18.7042 19.9947 18.6948C19.9957 18.6894 19.9966 18.6839 19.9973 18.6785C19.9986 18.6685 19.9992 18.6584 19.9995 18.6483C19.9996 18.6435 20 18.6387 19.9999 18.6338C19.9996 18.6189 19.9984 18.6038 19.9956 18.5887ZM14.8358 8.47622L14.5348 8.54661L14.5156 8.29797L14.8358 8.47622ZM14.1954 11.7663L12.9694 10.8091C12.8846 10.7428 12.7704 10.7283 12.6716 10.7712L10.2949 11.8057V11.484C10.4725 11.3394 10.876 10.9984 11.3596 10.5089L14.0079 9.34551L14.1954 11.7663ZM13.9223 8.24129L13.9598 8.72536L12.3054 9.45219C12.4697 9.24856 12.6228 9.04602 12.765 8.84457L13.9223 8.24129ZM6.07802 8.24129L7.29481 8.87559C7.47501 9.12899 7.67239 9.38422 7.88751 9.64113C8.07559 9.86574 8.26305 10.0745 8.4434 10.2655L5.94888 9.90855L6.07802 8.24129ZM5.22685 11.628L1.50718 13.5942L1.68835 12.5953L1.693 12.5695L5.30119 10.6679L5.22685 11.628ZM5.35482 9.97605L1.82612 11.8358L2.12893 10.1661L5.48478 8.29801L5.40044 9.38711L5.35482 9.97605ZM5.45552 16.2787L5.73345 12.6901L9.20101 17.9605L5.45552 16.2787ZM9.7066 15.1473L7.89829 12.2974L9.7066 12.5139V15.1473ZM9.7066 11.9226L7.35391 11.6409C7.24145 11.6277 7.1311 11.68 7.07067 11.7759C7.01024 11.8718 7.01044 11.9939 7.07118 12.0897L9.7066 16.2431V17.6609L5.80743 11.7345L5.90345 10.4952L9.14223 10.9586C9.38648 11.1853 9.58449 11.3536 9.70656 11.4541V11.9226H9.7066ZM10.019 10.9493C9.27769 10.3241 6.49974 7.80501 6.49974 5.1717C6.4997 3.23116 8.07844 1.65241 10.019 1.65241C11.9595 1.65241 13.5383 3.23116 13.5383 5.1717C13.5383 7.80501 10.7603 10.3241 10.019 10.9493ZM10.2937 18.1875V16.8845L11.1713 17.7934L10.2937 18.1875ZM11.7406 17.5378L10.2937 16.0392V12.4464L12.7457 11.3793L14.2567 12.5591L14.5448 16.2787L11.7406 17.5378ZM14.5806 9.13875L15.5984 8.90075L16.3202 9.30254L16.7196 9.52488L14.6463 9.98758L14.5806 9.13875ZM15.1326 16.2655L14.9035 13.3065L18.6745 17.8559L15.1326 16.2655ZM14.8249 12.2918L14.7451 11.2617L14.7418 11.2181L18.9484 16.1044L19.2181 17.5916L14.8249 12.2918Z" fill="#515365"/>
<path d="M10.019 3.35742C9.85688 3.35742 9.72543 3.48883 9.72543 3.65098C9.72543 3.81312 9.85688 3.94453 10.019 3.94453C10.6957 3.94453 11.2462 4.49503 11.2462 5.17171C11.2462 5.84835 10.6957 6.39889 10.019 6.39889C9.34231 6.39889 8.7918 5.84839 8.7918 5.17171C8.7918 4.848 8.91672 4.54257 9.1436 4.31164C9.25723 4.19601 9.25559 4.01015 9.13993 3.89656C9.02426 3.78293 8.8384 3.78453 8.72481 3.90023C8.38942 4.2416 8.20473 4.69316 8.20473 5.17171C8.20473 6.1721 9.0186 6.986 10.019 6.986C11.0194 6.986 11.8333 6.1721 11.8333 5.17171C11.8333 4.17129 11.0194 3.35742 10.019 3.35742Z" fill="#515365"/>
</svg>
