<svg width="16" height="16" viewBox="0 0 16 16" fill="none" xmlns="http://www.w3.org/2000/svg">
<g clip-path="url(#clip0)">
<path d="M8.00002 0C3.58879 0 0 3.89726 0 8.68743V12.6692C0 12.8691 0.162818 13.0311 0.363648 13.0311H1.45456V14.4791C1.45456 15.2776 2.10689 15.927 2.90912 15.927H4.00003C4.20103 15.927 4.36367 15.7651 4.36367 15.565V9.04941C4.36367 8.84933 4.20103 8.68743 4.00003 8.68743H2.90912C2.10692 8.68743 1.45456 9.33678 1.45456 10.1353V8.68743C1.45456 4.69545 4.39098 1.44792 8.00002 1.44792C11.6091 1.44792 14.5455 4.69545 14.5455 8.68743V10.1353C14.5455 9.33678 13.8931 8.68743 13.0909 8.68743H12C11.799 8.68743 11.6364 8.84933 11.6364 9.04941V15.565C11.6364 15.7651 11.799 15.927 12 15.927H13.0909C13.8931 15.927 14.5455 15.2776 14.5455 14.4791V13.0311H15.6364C15.8372 13.0311 16 12.8691 16 12.6692V8.68743C16 3.89726 12.4112 0 8.00002 0Z" fill="#515365"/>
</g>
<defs>
<clipPath id="clip0">
<rect width="16" height="15.9269" fill="white"/>
</clipPath>
</defs>
</svg>
