<svg width="23" height="23" viewBox="0 0 23 23" fill="none" xmlns="http://www.w3.org/2000/svg">
<path d="M8.14582 0H3.35419C2.56163 0 1.91669 0.644943 1.91669 1.4375V21.5625C1.91669 22.3551 2.56163 23 3.35419 23H8.14587C8.93842 23 9.58337 22.3551 9.58337 21.5625V1.4375C9.58332 0.644943 8.93838 0 8.14582 0Z" fill="white"/>
<path d="M19.6458 0H14.8542C14.0616 0 13.4167 0.644943 13.4167 1.4375V21.5625C13.4167 22.3551 14.0616 23 14.8542 23H19.6459C20.4384 23 21.0834 22.3551 21.0834 21.5625V1.4375C21.0833 0.644943 20.4384 0 19.6458 0Z" fill="white"/>
</svg>
